<mxfile host="app.diagrams.net" agent="Mozilla/5.0 (X11; Linux x86_64) AppleWebKit/537.36 (KHTML, like Gecko) Chrome/138.0.0.0 Safari/537.36" version="28.0.6">
  <diagram id="IZcMcbFR8H0I81rK18pe" name="Page-1">
    <mxGraphModel dx="682" dy="1304" grid="0" gridSize="10" guides="0" tooltips="1" connect="0" arrows="0" fold="1" page="0" pageScale="1" pageWidth="827" pageHeight="1169" math="0" shadow="0">
      <root>
        <mxCell id="0" />
        <mxCell id="1" parent="0" />
        <mxCell id="2" value="&lt;div style=&quot;font-weight: 900; font-size: 32px; line-height: 43px; white-space: pre;&quot;&gt;&lt;span style=&quot;background-color: rgb(255, 255, 255);&quot;&gt;&lt;font style=&quot;color: rgb(0, 0, 0);&quot;&gt;brands&lt;/font&gt;&lt;/span&gt;&lt;/div&gt;" style="rounded=0;whiteSpace=wrap;html=1;gradientColor=none;fillColor=default;strokeColor=default;fillStyle=auto;strokeWidth=3;" parent="1" vertex="1">
          <mxGeometry x="960" y="200" width="280" height="120" as="geometry" />
        </mxCell>
        <mxCell id="7" value="&lt;div style=&quot;line-height: 43px; white-space: pre;&quot;&gt;&lt;span style=&quot;background-color: rgb(255, 255, 255);&quot;&gt;&lt;font style=&quot;color: rgb(0, 0, 0); font-size: 32px;&quot;&gt;&lt;u style=&quot;&quot;&gt;&lt;b style=&quot;&quot;&gt;brand_id&lt;/b&gt;&lt;/u&gt;&lt;/font&gt;&lt;/span&gt;&lt;/div&gt;" style="ellipse;whiteSpace=wrap;html=1;strokeWidth=3;" parent="1" vertex="1">
          <mxGeometry x="680" y="-40" width="280" height="160" as="geometry" />
        </mxCell>
        <mxCell id="9" value="&lt;div style=&quot;font-weight: 900; line-height: 43px; white-space: pre;&quot;&gt;&lt;span style=&quot;background-color: rgb(255, 255, 255);&quot;&gt;&lt;font style=&quot;color: rgb(0, 0, 0); font-size: 32px;&quot;&gt;brand_name&lt;/font&gt;&lt;/span&gt;&lt;/div&gt;" style="ellipse;whiteSpace=wrap;html=1;strokeWidth=3;" parent="1" vertex="1">
          <mxGeometry x="1240" y="-40" width="280" height="160" as="geometry" />
        </mxCell>
        <mxCell id="10" value="" style="endArrow=none;html=1;entryX=0.5;entryY=1;entryDx=0;entryDy=0;exitX=1;exitY=0;exitDx=0;exitDy=0;strokeWidth=3;" parent="1" source="2" target="9" edge="1">
          <mxGeometry width="50" height="50" relative="1" as="geometry">
            <mxPoint x="1100" y="150" as="sourcePoint" />
            <mxPoint x="1150" y="100" as="targetPoint" />
          </mxGeometry>
        </mxCell>
        <mxCell id="11" value="" style="endArrow=none;html=1;entryX=0.5;entryY=1;entryDx=0;entryDy=0;exitX=0;exitY=0;exitDx=0;exitDy=0;strokeWidth=3;" parent="1" source="2" target="7" edge="1">
          <mxGeometry width="50" height="50" relative="1" as="geometry">
            <mxPoint x="1100" y="150" as="sourcePoint" />
            <mxPoint x="1150" y="100" as="targetPoint" />
          </mxGeometry>
        </mxCell>
        <mxCell id="14" value="&lt;div style=&quot;font-weight: 900; font-size: 32px; line-height: 43px; white-space: pre;&quot;&gt;&lt;font color=&quot;#000000&quot;&gt;&lt;span style=&quot;background-color: rgb(255, 255, 255);&quot;&gt;models&lt;/span&gt;&lt;/font&gt;&lt;/div&gt;" style="rounded=0;whiteSpace=wrap;html=1;gradientColor=none;fillColor=default;strokeColor=default;fillStyle=auto;strokeWidth=3;" parent="1" vertex="1">
          <mxGeometry x="2280" y="200" width="280" height="120" as="geometry" />
        </mxCell>
        <mxCell id="15" value="&lt;font style=&quot;color: rgb(0, 0, 0); font-size: 32px;&quot;&gt;&lt;b style=&quot;&quot;&gt;Has&lt;/b&gt;&lt;/font&gt;" style="rhombus;whiteSpace=wrap;html=1;strokeWidth=3;" parent="1" vertex="1">
          <mxGeometry x="1550" y="160" width="220" height="200" as="geometry" />
        </mxCell>
        <mxCell id="16" value="" style="endArrow=none;html=1;entryX=1;entryY=0.5;entryDx=0;entryDy=0;strokeWidth=3;" parent="1" source="15" target="2" edge="1">
          <mxGeometry width="50" height="50" relative="1" as="geometry">
            <mxPoint x="1690" y="310" as="sourcePoint" />
            <mxPoint x="1740" y="260" as="targetPoint" />
          </mxGeometry>
        </mxCell>
        <mxCell id="17" value="" style="endArrow=none;html=1;entryX=0;entryY=0.5;entryDx=0;entryDy=0;exitX=1;exitY=0.5;exitDx=0;exitDy=0;strokeWidth=3;" parent="1" source="15" target="14" edge="1">
          <mxGeometry width="50" height="50" relative="1" as="geometry">
            <mxPoint x="1840" y="310" as="sourcePoint" />
            <mxPoint x="1890" y="260" as="targetPoint" />
          </mxGeometry>
        </mxCell>
        <mxCell id="18" value="&lt;font style=&quot;font-size: 32px; color: rgb(0, 0, 0);&quot;&gt;&lt;b&gt;1&lt;/b&gt;&lt;/font&gt;" style="text;html=1;align=center;verticalAlign=middle;whiteSpace=wrap;rounded=0;" parent="1" vertex="1">
          <mxGeometry x="1320" y="200" width="160" height="60" as="geometry" />
        </mxCell>
        <mxCell id="19" value="&lt;font style=&quot;font-size: 32px; color: rgb(0, 0, 0);&quot;&gt;&lt;b&gt;N&lt;/b&gt;&lt;/font&gt;" style="text;html=1;align=center;verticalAlign=middle;whiteSpace=wrap;rounded=0;strokeWidth=3;" parent="1" vertex="1">
          <mxGeometry x="1940" y="200" width="160" height="60" as="geometry" />
        </mxCell>
        <mxCell id="22" value="&lt;div style=&quot;font-weight: 900; line-height: 43px; white-space: pre;&quot;&gt;&lt;div style=&quot;font-size: 32px; line-height: 43px;&quot;&gt;&lt;div style=&quot;line-height: 43px;&quot;&gt;&lt;span style=&quot;background-color: rgb(255, 255, 255);&quot;&gt;&lt;u style=&quot;&quot;&gt;&lt;font style=&quot;color: rgb(0, 0, 0);&quot;&gt;model_id&lt;/font&gt;&lt;/u&gt;&lt;/span&gt;&lt;/div&gt;&lt;/div&gt;&lt;/div&gt;" style="ellipse;whiteSpace=wrap;html=1;strokeWidth=3;" parent="1" vertex="1">
          <mxGeometry x="1788" y="-50" width="280" height="160" as="geometry" />
        </mxCell>
        <mxCell id="23" value="&lt;div style=&quot;font-weight: 900; line-height: 43px; white-space: pre;&quot;&gt;&lt;div style=&quot;font-size: 32px; line-height: 43px;&quot;&gt;&lt;div style=&quot;line-height: 43px;&quot;&gt;&lt;span style=&quot;background-color: rgb(255, 255, 255);&quot;&gt;&lt;font style=&quot;color: rgb(0, 0, 0);&quot;&gt;model_name&lt;/font&gt;&lt;/span&gt;&lt;/div&gt;&lt;/div&gt;&lt;/div&gt;" style="ellipse;whiteSpace=wrap;html=1;strokeWidth=3;" parent="1" vertex="1">
          <mxGeometry x="2000" y="-250" width="280" height="160" as="geometry" />
        </mxCell>
        <mxCell id="24" value="&lt;div style=&quot;font-weight: 900; line-height: 43px; white-space: pre;&quot;&gt;&lt;div style=&quot;font-size: 32px; line-height: 43px;&quot;&gt;&lt;div style=&quot;line-height: 43px;&quot;&gt;&lt;span style=&quot;background-color: rgb(255, 255, 255);&quot;&gt;&lt;font style=&quot;color: rgb(0, 0, 0);&quot;&gt;brand_id&lt;/font&gt;&lt;/span&gt;&lt;/div&gt;&lt;/div&gt;&lt;/div&gt;" style="ellipse;whiteSpace=wrap;html=1;strokeWidth=3;" parent="1" vertex="1">
          <mxGeometry x="2280" y="-450" width="280" height="160" as="geometry" />
        </mxCell>
        <mxCell id="25" value="&lt;div style=&quot;font-weight: 900; line-height: 43px; white-space: pre;&quot;&gt;&lt;div style=&quot;font-size: 32px; line-height: 43px;&quot;&gt;&lt;div style=&quot;line-height: 43px;&quot;&gt;&lt;span style=&quot;background-color: rgb(255, 255, 255);&quot;&gt;&lt;font style=&quot;color: rgb(0, 0, 0);&quot;&gt;fuel_type&lt;/font&gt;&lt;/span&gt;&lt;/div&gt;&lt;/div&gt;&lt;/div&gt;" style="ellipse;whiteSpace=wrap;html=1;strokeWidth=3;" parent="1" vertex="1">
          <mxGeometry x="2560" y="-240" width="280" height="160" as="geometry" />
        </mxCell>
        <mxCell id="27" value="" style="endArrow=none;html=1;entryX=0;entryY=0.5;entryDx=0;entryDy=0;exitX=0.5;exitY=0;exitDx=0;exitDy=0;strokeWidth=3;" parent="1" source="14" target="33" edge="1">
          <mxGeometry width="50" height="50" relative="1" as="geometry">
            <mxPoint x="2580" y="80" as="sourcePoint" />
            <mxPoint x="2829.9999999999995" y="40" as="targetPoint" />
          </mxGeometry>
        </mxCell>
        <mxCell id="28" value="" style="endArrow=none;html=1;entryX=0.5;entryY=1;entryDx=0;entryDy=0;exitX=0.5;exitY=0;exitDx=0;exitDy=0;strokeWidth=3;" parent="1" source="14" target="25" edge="1">
          <mxGeometry width="50" height="50" relative="1" as="geometry">
            <mxPoint x="2580" y="190" as="sourcePoint" />
            <mxPoint x="2530" y="30" as="targetPoint" />
          </mxGeometry>
        </mxCell>
        <mxCell id="29" value="" style="endArrow=none;html=1;entryX=0.5;entryY=1;entryDx=0;entryDy=0;exitX=0.5;exitY=0;exitDx=0;exitDy=0;strokeWidth=3;" parent="1" source="14" target="24" edge="1">
          <mxGeometry width="50" height="50" relative="1" as="geometry">
            <mxPoint x="2440" y="200" as="sourcePoint" />
            <mxPoint x="2530" y="30" as="targetPoint" />
          </mxGeometry>
        </mxCell>
        <mxCell id="30" value="" style="endArrow=none;html=1;entryX=0.5;entryY=1;entryDx=0;entryDy=0;exitX=0.5;exitY=0;exitDx=0;exitDy=0;strokeWidth=3;" parent="1" source="14" target="23" edge="1">
          <mxGeometry width="50" height="50" relative="1" as="geometry">
            <mxPoint x="2480" y="80" as="sourcePoint" />
            <mxPoint x="2530" y="30" as="targetPoint" />
          </mxGeometry>
        </mxCell>
        <mxCell id="31" value="" style="endArrow=none;html=1;entryX=1;entryY=0.5;entryDx=0;entryDy=0;exitX=0.5;exitY=0;exitDx=0;exitDy=0;strokeWidth=3;" parent="1" source="14" target="22" edge="1">
          <mxGeometry width="50" height="50" relative="1" as="geometry">
            <mxPoint x="2440" y="200" as="sourcePoint" />
            <mxPoint x="2530" y="30" as="targetPoint" />
          </mxGeometry>
        </mxCell>
        <mxCell id="33" value="&lt;span style=&quot;color: rgb(0, 0, 0); font-size: 32px; font-weight: 900; white-space: pre; background-color: rgb(255, 255, 255);&quot;&gt;transmission&lt;/span&gt;" style="ellipse;shape=doubleEllipse;whiteSpace=wrap;html=1;strokeWidth=3;" parent="1" vertex="1">
          <mxGeometry x="2820" y="-50" width="280" height="160" as="geometry" />
        </mxCell>
        <mxCell id="40" value="&lt;font style=&quot;&quot;&gt;&lt;b&gt;&lt;font style=&quot;color: rgb(0, 0, 0); font-size: 32px;&quot;&gt;describes&lt;/font&gt;&lt;span style=&quot;font-size: 17px;&quot;&gt;&amp;nbsp;&lt;/span&gt;&lt;/b&gt;&lt;/font&gt;" style="rhombus;whiteSpace=wrap;html=1;strokeWidth=3;" parent="1" vertex="1">
          <mxGeometry x="2310" y="580" width="220" height="200" as="geometry" />
        </mxCell>
        <mxCell id="41" value="" style="endArrow=none;html=1;entryX=0.5;entryY=1;entryDx=0;entryDy=0;exitX=0.5;exitY=0;exitDx=0;exitDy=0;strokeWidth=3;" parent="1" source="40" target="14" edge="1">
          <mxGeometry width="50" height="50" relative="1" as="geometry">
            <mxPoint x="2410" y="530" as="sourcePoint" />
            <mxPoint x="2450" y="540" as="targetPoint" />
          </mxGeometry>
        </mxCell>
        <mxCell id="42" value="" style="endArrow=none;html=1;entryX=0.5;entryY=1;entryDx=0;entryDy=0;exitX=0.5;exitY=0;exitDx=0;exitDy=0;strokeWidth=3;" parent="1" source="43" target="40" edge="1">
          <mxGeometry width="50" height="50" relative="1" as="geometry">
            <mxPoint x="2420" y="1110" as="sourcePoint" />
            <mxPoint x="2430" y="800" as="targetPoint" />
          </mxGeometry>
        </mxCell>
        <mxCell id="43" value="&lt;div style=&quot;font-weight: 900; font-size: 32px; line-height: 43px; white-space: pre;&quot;&gt;&lt;div style=&quot;line-height: 43px;&quot;&gt;&lt;span style=&quot;background-color: rgb(255, 255, 255);&quot;&gt;&lt;font style=&quot;color: rgb(0, 0, 0);&quot;&gt;car_data&lt;/font&gt;&lt;/span&gt;&lt;/div&gt;&lt;/div&gt;" style="rounded=0;whiteSpace=wrap;html=1;gradientColor=none;fillColor=default;strokeColor=default;fillStyle=auto;strokeWidth=3;" parent="1" vertex="1">
          <mxGeometry x="2280" y="1010" width="280" height="120" as="geometry" />
        </mxCell>
        <mxCell id="46" value="&lt;div style=&quot;font-weight: 900; line-height: 43px; white-space: pre;&quot;&gt;&lt;div style=&quot;font-size: 32px; line-height: 43px;&quot;&gt;&lt;div style=&quot;line-height: 43px;&quot;&gt;&lt;div style=&quot;line-height: 43px;&quot;&gt;&lt;span style=&quot;background-color: rgb(255, 255, 255);&quot;&gt;&lt;font style=&quot;color: rgb(0, 0, 0);&quot;&gt;model_id&lt;/font&gt;&lt;/span&gt;&lt;/div&gt;&lt;/div&gt;&lt;/div&gt;&lt;/div&gt;" style="ellipse;whiteSpace=wrap;html=1;strokeWidth=3;" parent="1" vertex="1">
          <mxGeometry x="2000" y="1510" width="280" height="160" as="geometry" />
        </mxCell>
        <mxCell id="47" value="&lt;div style=&quot;font-weight: 900; line-height: 43px; white-space: pre;&quot;&gt;&lt;div style=&quot;font-size: 32px; line-height: 43px;&quot;&gt;&lt;div style=&quot;line-height: 43px;&quot;&gt;&lt;div style=&quot;line-height: 43px;&quot;&gt;&lt;span style=&quot;background-color: rgb(255, 255, 255);&quot;&gt;&lt;font style=&quot;color: rgb(0, 0, 0);&quot;&gt;&lt;u&gt;car_id&lt;/u&gt;&lt;/font&gt;&lt;/span&gt;&lt;/div&gt;&lt;/div&gt;&lt;/div&gt;&lt;/div&gt;" style="ellipse;whiteSpace=wrap;html=1;strokeWidth=3;" parent="1" vertex="1">
          <mxGeometry x="1820" y="1180" width="280" height="160" as="geometry" />
        </mxCell>
        <mxCell id="48" value="&lt;div style=&quot;font-weight: 900; line-height: 43px; white-space: pre;&quot;&gt;&lt;div style=&quot;font-size: 32px; line-height: 43px;&quot;&gt;&lt;div style=&quot;line-height: 43px;&quot;&gt;&lt;div style=&quot;line-height: 43px;&quot;&gt;&lt;span style=&quot;background-color: rgb(255, 255, 255);&quot;&gt;&lt;font style=&quot;color: rgb(0, 0, 0);&quot;&gt;manufacturing_year&lt;/font&gt;&lt;/span&gt;&lt;/div&gt;&lt;/div&gt;&lt;/div&gt;&lt;/div&gt;" style="ellipse;whiteSpace=wrap;html=1;strokeWidth=3;" parent="1" vertex="1">
          <mxGeometry x="2240" y="1700" width="360" height="190" as="geometry" />
        </mxCell>
        <mxCell id="49" value="&lt;div style=&quot;font-weight: 900; line-height: 43px; white-space: pre;&quot;&gt;&lt;div style=&quot;font-size: 32px; line-height: 43px;&quot;&gt;&lt;div style=&quot;line-height: 43px;&quot;&gt;&lt;div style=&quot;line-height: 43px;&quot;&gt;&lt;span style=&quot;background-color: rgb(255, 255, 255);&quot;&gt;&lt;font style=&quot;color: rgb(0, 0, 0);&quot;&gt;mileage&lt;/font&gt;&lt;/span&gt;&lt;/div&gt;&lt;/div&gt;&lt;/div&gt;&lt;/div&gt;" style="ellipse;whiteSpace=wrap;html=1;strokeWidth=3;" parent="1" vertex="1">
          <mxGeometry x="2560" y="1510" width="280" height="160" as="geometry" />
        </mxCell>
        <mxCell id="50" value="" style="endArrow=none;html=1;entryX=0;entryY=0;entryDx=0;entryDy=0;exitX=0.5;exitY=1;exitDx=0;exitDy=0;strokeWidth=3;" parent="1" source="43" target="49" edge="1">
          <mxGeometry width="50" height="50" relative="1" as="geometry">
            <mxPoint x="2772" y="2380" as="sourcePoint" />
            <mxPoint x="3021.9999999999995" y="2340" as="targetPoint" />
          </mxGeometry>
        </mxCell>
        <mxCell id="51" value="" style="endArrow=none;html=1;entryX=0;entryY=0;entryDx=0;entryDy=0;exitX=0.5;exitY=1;exitDx=0;exitDy=0;strokeWidth=3;" parent="1" source="43" target="49" edge="1">
          <mxGeometry width="50" height="50" relative="1" as="geometry">
            <mxPoint x="2772" y="2490" as="sourcePoint" />
            <mxPoint x="2722" y="2330" as="targetPoint" />
          </mxGeometry>
        </mxCell>
        <mxCell id="52" value="" style="endArrow=none;html=1;entryX=0.5;entryY=0;entryDx=0;entryDy=0;exitX=0.5;exitY=1;exitDx=0;exitDy=0;strokeWidth=3;" parent="1" source="43" target="48" edge="1">
          <mxGeometry width="50" height="50" relative="1" as="geometry">
            <mxPoint x="2632" y="2500" as="sourcePoint" />
            <mxPoint x="2722" y="2330" as="targetPoint" />
          </mxGeometry>
        </mxCell>
        <mxCell id="53" value="" style="endArrow=none;html=1;entryX=1;entryY=0;entryDx=0;entryDy=0;exitX=0.5;exitY=1;exitDx=0;exitDy=0;strokeWidth=3;" parent="1" source="43" target="47" edge="1">
          <mxGeometry width="50" height="50" relative="1" as="geometry">
            <mxPoint x="2672" y="2380" as="sourcePoint" />
            <mxPoint x="2722" y="2330" as="targetPoint" />
          </mxGeometry>
        </mxCell>
        <mxCell id="54" value="" style="endArrow=none;html=1;entryX=1;entryY=0.5;entryDx=0;entryDy=0;exitX=0.5;exitY=1;exitDx=0;exitDy=0;strokeWidth=3;" parent="1" source="43" target="46" edge="1">
          <mxGeometry width="50" height="50" relative="1" as="geometry">
            <mxPoint x="2632" y="2500" as="sourcePoint" />
            <mxPoint x="2722" y="2330" as="targetPoint" />
          </mxGeometry>
        </mxCell>
        <mxCell id="56" value="" style="endArrow=none;html=1;entryX=0;entryY=0.5;entryDx=0;entryDy=0;exitX=0.5;exitY=1;exitDx=0;exitDy=0;strokeWidth=3;" parent="1" source="43" target="90" edge="1">
          <mxGeometry width="50" height="50" relative="1" as="geometry">
            <mxPoint x="2420" y="1130" as="sourcePoint" />
            <mxPoint x="2839.99999999999" y="1260" as="targetPoint" />
          </mxGeometry>
        </mxCell>
        <mxCell id="58" value="&lt;font style=&quot;font-size: 32px; color: rgb(0, 0, 0);&quot;&gt;&lt;b&gt;Is Predicted&lt;/b&gt;&lt;/font&gt;" style="rhombus;whiteSpace=wrap;html=1;strokeWidth=3;" parent="1" vertex="1">
          <mxGeometry x="1550" y="969" width="220" height="200" as="geometry" />
        </mxCell>
        <mxCell id="59" value="" style="endArrow=none;html=1;entryX=0;entryY=0.5;entryDx=0;entryDy=0;exitX=1;exitY=0.5;exitDx=0;exitDy=0;strokeWidth=3;" parent="1" source="58" target="43" edge="1">
          <mxGeometry width="50" height="50" relative="1" as="geometry">
            <mxPoint x="1530" y="1230" as="sourcePoint" />
            <mxPoint x="1580" y="1180" as="targetPoint" />
          </mxGeometry>
        </mxCell>
        <mxCell id="60" value="" style="endArrow=none;html=1;entryX=0;entryY=0.5;entryDx=0;entryDy=0;exitX=1;exitY=0.5;exitDx=0;exitDy=0;strokeWidth=3;" parent="1" source="77" target="58" edge="1">
          <mxGeometry width="50" height="50" relative="1" as="geometry">
            <mxPoint x="1290" y="1069" as="sourcePoint" />
            <mxPoint x="1850" y="850" as="targetPoint" />
          </mxGeometry>
        </mxCell>
        <mxCell id="77" value="&lt;div style=&quot;font-weight: 900; font-size: 32px; line-height: 43px; white-space: pre;&quot;&gt;&lt;div style=&quot;line-height: 43px;&quot;&gt;&lt;div style=&quot;line-height: 43px;&quot;&gt;&lt;span style=&quot;background-color: rgb(255, 255, 255);&quot;&gt;&lt;font style=&quot;color: rgb(0, 0, 0);&quot;&gt;car_predictions&lt;/font&gt;&lt;/span&gt;&lt;/div&gt;&lt;/div&gt;&lt;/div&gt;" style="rounded=0;whiteSpace=wrap;html=1;gradientColor=none;fillColor=default;strokeColor=default;fillStyle=auto;strokeWidth=3;" parent="1" vertex="1">
          <mxGeometry x="960" y="1010" width="280" height="120" as="geometry" />
        </mxCell>
        <mxCell id="78" value="&lt;div style=&quot;font-weight: 900; line-height: 43px; white-space: pre;&quot;&gt;&lt;div style=&quot;font-size: 32px; line-height: 43px;&quot;&gt;&lt;div style=&quot;line-height: 43px;&quot;&gt;&lt;div style=&quot;line-height: 43px;&quot;&gt;&lt;div style=&quot;line-height: 43px;&quot;&gt;&lt;span style=&quot;background-color: rgb(255, 255, 255);&quot;&gt;&lt;font style=&quot;color: rgb(0, 0, 0);&quot;&gt;car_id&lt;/font&gt;&lt;/span&gt;&lt;/div&gt;&lt;/div&gt;&lt;/div&gt;&lt;/div&gt;&lt;/div&gt;" style="ellipse;whiteSpace=wrap;html=1;strokeWidth=3;" parent="1" vertex="1">
          <mxGeometry x="680" y="1510" width="280" height="160" as="geometry" />
        </mxCell>
        <mxCell id="79" value="&lt;div style=&quot;font-weight: 900; line-height: 43px; white-space: pre;&quot;&gt;&lt;div style=&quot;font-size: 32px; line-height: 43px;&quot;&gt;&lt;div style=&quot;line-height: 43px;&quot;&gt;&lt;div style=&quot;line-height: 43px;&quot;&gt;&lt;div style=&quot;line-height: 43px;&quot;&gt;&lt;span style=&quot;background-color: rgb(255, 255, 255);&quot;&gt;&lt;font style=&quot;color: rgb(0, 0, 0);&quot;&gt;&lt;u&gt;prediction_id&lt;/u&gt;&lt;/font&gt;&lt;/span&gt;&lt;/div&gt;&lt;/div&gt;&lt;/div&gt;&lt;/div&gt;&lt;/div&gt;" style="ellipse;whiteSpace=wrap;html=1;strokeWidth=3;" parent="1" vertex="1">
          <mxGeometry x="580" y="1180" width="280" height="160" as="geometry" />
        </mxCell>
        <mxCell id="80" value="&lt;div style=&quot;font-weight: 900; line-height: 43px; white-space: pre;&quot;&gt;&lt;div style=&quot;font-size: 32px; line-height: 43px;&quot;&gt;&lt;div style=&quot;line-height: 43px;&quot;&gt;&lt;div style=&quot;line-height: 43px;&quot;&gt;&lt;div style=&quot;line-height: 43px;&quot;&gt;&lt;span style=&quot;background-color: rgb(255, 255, 255);&quot;&gt;&lt;font style=&quot;color: rgb(0, 0, 0);&quot;&gt;predicted_price&lt;/font&gt;&lt;/span&gt;&lt;/div&gt;&lt;/div&gt;&lt;/div&gt;&lt;/div&gt;&lt;/div&gt;" style="ellipse;whiteSpace=wrap;html=1;strokeWidth=3;" parent="1" vertex="1">
          <mxGeometry x="920" y="1700" width="360" height="190" as="geometry" />
        </mxCell>
        <mxCell id="81" value="&lt;div style=&quot;font-weight: 900; line-height: 43px; white-space: pre;&quot;&gt;&lt;div style=&quot;font-size: 32px; line-height: 43px;&quot;&gt;&lt;div style=&quot;line-height: 43px;&quot;&gt;&lt;div style=&quot;line-height: 43px;&quot;&gt;&lt;div style=&quot;line-height: 43px;&quot;&gt;&lt;span style=&quot;background-color: rgb(255, 255, 255);&quot;&gt;&lt;font style=&quot;color: rgb(0, 0, 0);&quot;&gt;predicted_validity_years&lt;/font&gt;&lt;/span&gt;&lt;/div&gt;&lt;/div&gt;&lt;/div&gt;&lt;/div&gt;&lt;/div&gt;" style="ellipse;whiteSpace=wrap;html=1;strokeWidth=3;" parent="1" vertex="1">
          <mxGeometry x="1240" y="1510" width="460" height="200" as="geometry" />
        </mxCell>
        <mxCell id="82" value="" style="endArrow=none;html=1;entryX=0;entryY=0;entryDx=0;entryDy=0;exitX=0.5;exitY=1;exitDx=0;exitDy=0;strokeWidth=3;" parent="1" source="77" target="81" edge="1">
          <mxGeometry width="50" height="50" relative="1" as="geometry">
            <mxPoint x="1452" y="2380" as="sourcePoint" />
            <mxPoint x="1701.9999999999995" y="2340" as="targetPoint" />
          </mxGeometry>
        </mxCell>
        <mxCell id="83" value="" style="endArrow=none;html=1;entryX=0;entryY=0;entryDx=0;entryDy=0;exitX=0.5;exitY=1;exitDx=0;exitDy=0;strokeWidth=3;" parent="1" source="77" target="81" edge="1">
          <mxGeometry width="50" height="50" relative="1" as="geometry">
            <mxPoint x="1452" y="2490" as="sourcePoint" />
            <mxPoint x="1402" y="2330" as="targetPoint" />
          </mxGeometry>
        </mxCell>
        <mxCell id="84" value="" style="endArrow=none;html=1;entryX=0.5;entryY=0;entryDx=0;entryDy=0;exitX=0.5;exitY=1;exitDx=0;exitDy=0;strokeWidth=3;" parent="1" source="77" target="80" edge="1">
          <mxGeometry width="50" height="50" relative="1" as="geometry">
            <mxPoint x="1312" y="2500" as="sourcePoint" />
            <mxPoint x="1402" y="2330" as="targetPoint" />
          </mxGeometry>
        </mxCell>
        <mxCell id="85" value="" style="endArrow=none;html=1;entryX=1;entryY=0;entryDx=0;entryDy=0;exitX=0.5;exitY=1;exitDx=0;exitDy=0;strokeWidth=3;" parent="1" source="77" target="79" edge="1">
          <mxGeometry width="50" height="50" relative="1" as="geometry">
            <mxPoint x="1352" y="2380" as="sourcePoint" />
            <mxPoint x="1402" y="2330" as="targetPoint" />
          </mxGeometry>
        </mxCell>
        <mxCell id="86" value="" style="endArrow=none;html=1;entryX=1;entryY=0.5;entryDx=0;entryDy=0;exitX=0.5;exitY=1;exitDx=0;exitDy=0;strokeWidth=3;" parent="1" source="77" target="78" edge="1">
          <mxGeometry width="50" height="50" relative="1" as="geometry">
            <mxPoint x="1312" y="2500" as="sourcePoint" />
            <mxPoint x="1402" y="2330" as="targetPoint" />
          </mxGeometry>
        </mxCell>
        <mxCell id="88" value="" style="endArrow=none;html=1;entryX=0;entryY=0;entryDx=0;entryDy=0;exitX=0.5;exitY=1;exitDx=0;exitDy=0;strokeWidth=3;" parent="1" source="77" target="91" edge="1">
          <mxGeometry width="50" height="50" relative="1" as="geometry">
            <mxPoint x="1100" y="1130" as="sourcePoint" />
            <mxPoint x="1520.000000000005" y="1260" as="targetPoint" />
          </mxGeometry>
        </mxCell>
        <mxCell id="90" value="&lt;div style=&quot;font-weight: 900; line-height: 43px; white-space: pre;&quot;&gt;&lt;div style=&quot;font-size: 32px; line-height: 43px;&quot;&gt;&lt;div style=&quot;line-height: 43px;&quot;&gt;&lt;div style=&quot;line-height: 43px;&quot;&gt;&lt;div style=&quot;line-height: 43px;&quot;&gt;&lt;font style=&quot;color: rgb(0, 0, 0); background-color: light-dark(#ffffff, var(--ge-dark-color, #121212));&quot;&gt;sold_date&lt;/font&gt;&lt;/div&gt;&lt;/div&gt;&lt;/div&gt;&lt;/div&gt;&lt;/div&gt;" style="ellipse;whiteSpace=wrap;html=1;strokeWidth=3;" parent="1" vertex="1">
          <mxGeometry x="2840" y="1180" width="280" height="160" as="geometry" />
        </mxCell>
        <mxCell id="91" value="&lt;div style=&quot;font-weight: 900; line-height: 43px; white-space: pre;&quot;&gt;&lt;div style=&quot;font-size: 32px; line-height: 43px;&quot;&gt;&lt;div style=&quot;line-height: 43px;&quot;&gt;&lt;div style=&quot;line-height: 43px;&quot;&gt;&lt;div style=&quot;line-height: 43px;&quot;&gt;&lt;span style=&quot;background-color: rgb(255, 255, 255);&quot;&gt;&lt;font style=&quot;color: rgb(0, 0, 0);&quot;&gt;sell_recommended&lt;/font&gt;&lt;/span&gt;&lt;/div&gt;&lt;/div&gt;&lt;/div&gt;&lt;/div&gt;&lt;/div&gt;" style="ellipse;whiteSpace=wrap;html=1;strokeWidth=3;" parent="1" vertex="1">
          <mxGeometry x="1280" y="1180" width="350" height="160" as="geometry" />
        </mxCell>
        <mxCell id="92" value="&lt;font style=&quot;font-size: 32px; color: rgb(0, 0, 0);&quot;&gt;&lt;b&gt;N&lt;/b&gt;&lt;/font&gt;" style="text;html=1;align=center;verticalAlign=middle;whiteSpace=wrap;rounded=0;strokeWidth=3;" parent="1" vertex="1">
          <mxGeometry x="1320" y="1010" width="160" height="60" as="geometry" />
        </mxCell>
        <mxCell id="93" value="&lt;font style=&quot;font-size: 32px; color: rgb(0, 0, 0);&quot;&gt;&lt;b&gt;1&lt;/b&gt;&lt;/font&gt;" style="text;html=1;align=center;verticalAlign=middle;whiteSpace=wrap;rounded=0;strokeWidth=3;" parent="1" vertex="1">
          <mxGeometry x="1940" y="1010" width="160" height="60" as="geometry" />
        </mxCell>
        <mxCell id="94" value="&lt;font style=&quot;font-size: 32px; color: rgb(0, 0, 0);&quot;&gt;&lt;b&gt;1&lt;/b&gt;&lt;/font&gt;" style="text;html=1;align=center;verticalAlign=middle;whiteSpace=wrap;rounded=0;strokeWidth=3;" parent="1" vertex="1">
          <mxGeometry x="2420" y="421" width="92" height="60" as="geometry" />
        </mxCell>
        <mxCell id="96" value="&lt;font style=&quot;font-size: 32px; color: rgb(0, 0, 0);&quot;&gt;&lt;b&gt;N&lt;/b&gt;&lt;/font&gt;" style="text;html=1;align=center;verticalAlign=middle;whiteSpace=wrap;rounded=0;strokeWidth=3;" parent="1" vertex="1">
          <mxGeometry x="2423" y="880" width="92" height="60" as="geometry" />
        </mxCell>
      </root>
    </mxGraphModel>
  </diagram>
</mxfile>
